:SAMPLES-PER-SECOND 30
:FULLY-SPECIFIED
:DEGREES
356
root  -3.63856 40.8367 -1.30421 -1.79797 -54.4246 2.66492
RightUpLeg  7.23981 -3.25805 0.908559
RightLeg  -11.0153 -55.7592 10.6364
RightFoot  -2.03299 -0.154894 1.75423
RightToes  -3.10678e-008 1.75238e-005 3.56266e-009
Spine  11.2932 6.48433 -0.630921
Spine1  -20.3479 6.22728 -3.69663
HEad  -15.2615 -0.263286 -0.738496
LeftShoulder1  0.613974 0.936823 -17.2241
LeftArm  -4.50152 20.8413 -56.6969
LeftForeArm  97.5666 -80.4646 -84.5696
LeftHand  -0.560942 -4.67549 6.74373
RightShoulder  1.17682 1.57798 16.5377
RightArm  -4.50256 2.48258 48.1277
RightForeArm  86.7675 79.8603 87.4022
RightHand  -0.32674 8.19185 -3.16596
LeftUpLeg  -3.87761 -0.639319 1.47342
LeftLeg  -0.0750817 -15.4265 -0.291258
LeftFoot  2.58492 0.639946 -5.36493
LeftToes  4.7643e-008 1.47522e-008 1.32869e-009
357
root  -3.66894 40.8502 -1.24769 -1.89935 -54.6685 2.69617
RightUpLeg  7.56403 -3.25314 0.839954
RightLeg  -11.5445 -55.5 11.0222
RightFoot  -1.9005 -0.149251 1.63747
RightToes  -3.10678e-008 1.75238e-005 3.56266e-009
Spine  11.9928 6.27275 -0.668169
Spine1  -21.2643 5.97083 -3.82348
HEad  -15.849 -0.219199 -0.671524
LeftShoulder1  0.58021 1.06521 -17.0707
LeftArm  -4.92306 20.5962 -57.3705
LeftForeArm  95.6718 -80.4451 -82.04
LeftHand  -0.646285 -5.12436 7.46268
RightShoulder  1.24481 1.81741 16.7967
RightArm  -4.18864 2.61888 47.9338
RightForeArm  84.6606 79.8433 85.0961
RightHand  -0.276686 8.55773 -2.68018
LeftUpLeg  -3.52885 -0.437029 1.51955
LeftLeg  -0.373224 -15.347 -0.382687
LeftFoot  2.61131 0.649685 -5.45289
LeftToes  4.7643e-008 1.47522e-008 1.32869e-009
358
root  -3.69783 40.8658 -1.19269 -1.85724 -54.9319 2.74896
RightUpLeg  7.64109 -3.25975 0.739165
RightLeg  -11.8292 -55.171 11.2266
RightFoot  -1.72928 -0.143714 1.52855
RightToes  -3.10678e-008 1.75238e-005 3.56266e-009
Spine  11.9675 6.3322 -0.940309
Spine1  -21.3482 6.01201 -3.31063
HEad  -15.4956 -0.659905 -1.10233
LeftShoulder1  0.739882 0.486815 -17.8959
LeftArm  -5.23906 19.6889 -56.4155
LeftForeArm  93.3059 -80.3778 -79.9028
LeftHand  -0.485903 -5.58026 5.48434
RightShoulder  1.17391 1.5851 16.4452
RightArm  -3.84456 2.77371 48.429
RightForeArm  83.9169 79.8337 84.2631
RightHand  -0.303718 8.39213 -2.93379
LeftUpLeg  -3.24586 -0.323169 1.5354
LeftLeg  -0.906878 -15.1757 -0.378768
LeftFoot  2.75288 0.654043 -5.4998
LeftToes  4.7643e-008 1.47522e-008 1.32869e-009
359
root  -3.72187 40.8766 -1.14201 -1.72339 -55.3861 2.7196
RightUpLeg  7.67298 -3.10212 0.776562
RightLeg  -12.1283 -54.8461 11.3131
RightFoot  -1.54438 -0.142384 1.4891
RightToes  -3.10678e-008 1.75238e-005 3.56266e-009
Spine  12.2894 6.34595 -1.10597
Spine1  -22.0053 5.97977 -3.05204
HEad  -14.8671 -0.471617 -1.59634
LeftShoulder1  0.749935 0.474683 -18.1045
LeftArm  -4.82957 18.9121 -56.2536
LeftForeArm  89.7301 -80.2455 -77.2006
LeftHand  -0.554892 -4.23921 6.94703
RightShoulder  1.17147 1.52578 16.6613
RightArm  -3.46461 2.40686 48.7871
RightForeArm  84.3197 79.8376 84.7542
RightHand  -0.315982 8.08566 -3.09025
LeftUpLeg  -3.06021 -0.203687 1.59827
LeftLeg  -1.2652 -14.8289 -0.385383
LeftFoot  2.86253 0.645829 -5.36758
LeftToes  4.7643e-008 1.47522e-008 1.32869e-009
360
root  -3.7166 40.885 -1.09331 -1.38403 -55.8529 2.67987
RightUpLeg  7.32632 -2.9752 0.779537
RightLeg  -12.0111 -54.5642 11.1024
RightFoot  -1.35955 -0.154505 1.64979
RightToes  -3.10678e-008 1.75238e-005 3.56266e-009
Spine  13.0691 6.06878 -0.698535
Spine1  -23.5903 5.63776 -3.90522
HEad  -13.8987 -0.711919 -0.632043
LeftShoulder1  0.629687 0.819468 -16.75
LeftArm  -5.13211 19.0034 -57.1379
LeftForeArm  89.6234 -80.242 -76.6456
LeftHand  -0.613825 -4.58206 7.43334
RightShoulder  1.32625 1.91251 17.9965
RightArm  -3.16955 1.24014 48.376
RightForeArm  86.5889 79.8872 86.4725
RightHand  -0.325235 8.26107 -3.13943
LeftUpLeg  -3.23669 -0.225277 1.61229
LeftLeg  -1.41631 -14.3322 -0.388867
LeftFoot  2.98251 0.636069 -5.2023
LeftToes  4.7643e-008 1.47522e-008 1.32869e-009
361
root  -3.69106 40.8987 -1.03109 -0.912231 -56.3393 2.65491
RightUpLeg  6.86857 -2.96814 0.64141
RightLeg  -12.0175 -54.0413 11.1317
RightFoot  -1.1641 -0.165758 1.77568
RightToes  -3.10678e-008 1.75238e-005 3.56266e-009
Spine  14.031 6.12917 -1.42446
Spine1  -25.4516 5.57846 -2.66226
HEad  -13.0883 -0.323129 -0.950567
LeftShoulder1  0.613957 0.923039 -17.0651
LeftArm  -5.33218 19.8254 -56.9978
LeftForeArm  96.9387 -80.4447 -84.3317
LeftHand  -0.603462 -4.51668 7.35548
RightShoulder  1.21497 1.60267 17.2343
RightArm  -2.49043 -0.368267 49.4671
RightForeArm  89.051 79.927 88.3906
RightHand  -0.269333 8.38001 -2.64758
LeftUpLeg  -3.58012 -0.319295 1.58074
LeftLeg  -1.58663 -13.7534 -0.3709
LeftFoot  3.14119 0.635128 -5.14807
LeftToes  4.7643e-008 1.47522e-008 1.32869e-009
362
root  -3.64983 40.9158 -0.979355 -0.0444336 -56.6633 2.38013
RightUpLeg  6.23374 -2.77979 0.707258
RightLeg  -12.2596 -53.8073 11.3177
RightFoot  -0.874655 -0.179561 1.8921
RightToes  -3.10678e-008 1.75238e-005 3.56266e-009
Spine  15.3247 5.95712 -1.14412
Spine1  -27.8941 5.3009 -2.87578
HEad  -12.5516 0.137745 -0.905769
LeftShoulder1  0.474844 1.43722 -16.2139
LeftArm  -5.36552 20.6724 -57.7497
LeftForeArm  104.909 -80.4399 -93.0355
LeftHand  -0.607573 -4.27833 7.56954
RightShoulder  1.03519 0.956631 16.5967
RightArm  -1.32218 -2.7766 50.5309
RightForeArm  93.6131 79.9104 93.1036
RightHand  -0.301732 8.0116 -2.97764
LeftUpLeg  -4.15303 -0.340848 1.68734
LeftLeg  -1.80995 -13.3797 -0.346533
LeftFoot  3.33757 0.646812 -5.17751
LeftToes  4.7643e-008 1.47522e-008 1.32869e-009
363
root  -3.61053 40.935 -0.908661 0.942749 -56.7157 2.35571
RightUpLeg  5.19047 -2.54053 0.687533
RightLeg  -12.199 -53.9014 11.1086
RightFoot  -0.517181 -0.251526 2.61669
RightToes  -3.10678e-008 1.75238e-005 3.56266e-009
Spine  16.6638 5.62534 -1.20055
Spine1  -30.8763 4.8367 -2.75661
HEad  -11.243 -0.0360949 -1.0749
LeftShoulder1  0.391508 1.77186 -15.7876
LeftArm  -5.9164 22.266 -58.3907
LeftForeArm  117.684 -80.1164 -105.572
LeftHand  -0.672989 -4.34397 8.3091
RightShoulder  0.859265 0.304719 15.9382
RightArm  0.0603098 -6.04472 51.4416
RightForeArm  99.534 79.8126 98.8996
RightHand  -0.39736 8.25562 -3.75289
LeftUpLeg  -4.89827 -0.607943 1.61024
LeftLeg  -2.43191 -12.9947 -0.201692
LeftFoot  3.66581 0.693344 -5.43077
LeftToes  4.7643e-008 1.47522e-008 1.32869e-009
